<svg width="142" height="33" viewBox="0 0 142 33" fill="none" xmlns="http://www.w3.org/2000/svg">
<path d="M0 6.73727V32.6084H3.75838V13.8746H4.00127L11.7226 32.5705H14.8418L22.5631 13.8872H22.806V32.6084H26.5643V6.73727H21.7705L13.4356 26.848H13.1288L4.79385 6.73727H0Z" fill="white"/>
<path d="M41.1313 33C45.4138 33 48.4435 30.9157 49.3128 27.7576L45.695 27.1133C45.0047 28.945 43.3428 29.8798 41.1696 29.8798C37.897 29.8798 35.6982 27.7828 35.596 24.0436H49.5557V22.7046C49.5557 15.6936 45.3115 12.9524 40.8628 12.9524C35.3914 12.9524 31.7864 17.0706 31.7864 23.033C31.7864 29.0587 35.3403 33 41.1313 33ZM35.6088 21.214C35.7622 18.4601 37.782 16.0726 40.8884 16.0726C43.8542 16.0726 45.7973 18.2454 45.8101 21.214H35.6088Z" fill="white"/>
<path d="M68.5106 17.9422C67.718 14.9231 65.3275 12.9524 61.0833 12.9524C56.6474 12.9524 53.5026 15.2641 53.5026 18.7001C53.5026 21.454 55.19 23.2857 58.8717 24.0942L62.1955 24.8142C64.0874 25.2311 64.9695 26.0648 64.9695 27.2775C64.9695 28.7808 63.346 29.9556 60.8404 29.9556C58.5521 29.9556 57.082 28.9829 56.6218 27.0754L52.9273 27.6312C53.5665 31.0672 56.4556 33 60.866 33C65.6087 33 68.8941 30.5114 68.8941 26.9996C68.8941 24.2584 67.1299 22.5656 63.525 21.7445L60.4058 21.0371C58.2453 20.5318 57.3121 19.8118 57.3249 18.498C57.3121 17.0074 58.9484 15.9463 61.1216 15.9463C63.4994 15.9463 64.5988 17.2474 65.0462 18.5486L68.5106 17.9422Z" fill="white"/>
<path d="M82.2625 13.2051H78.2357V8.55633H74.4134V13.2051H71.5371V16.2368H74.4134V27.6944C74.4006 31.2188 77.1235 32.9242 80.1405 32.861C81.3549 32.8484 82.1731 32.621 82.6205 32.4568L81.9302 29.3366C81.6745 29.3871 81.2015 29.5008 80.5879 29.5008C79.3479 29.5008 78.2357 29.0966 78.2357 26.9112V16.2368H82.2625V13.2051Z" fill="white"/>
<path d="M94.5508 33C100.086 33 103.704 28.9955 103.704 22.9952C103.704 16.9569 100.086 12.9524 94.5508 12.9524C89.0155 12.9524 85.3977 16.9569 85.3977 22.9952C85.3977 28.9955 89.0155 33 94.5508 33ZM94.5636 29.8293C90.9458 29.8293 89.2584 26.7091 89.2584 22.9825C89.2584 19.2686 90.9458 16.1105 94.5636 16.1105C98.1558 16.1105 99.8432 19.2686 99.8432 22.9825C99.8432 26.7091 98.1558 29.8293 94.5636 29.8293Z" fill="white"/>
</svg>
